<?xml version="1.0" encoding="UTF-8"?>
<svg width="27px" height="27px" viewBox="0 0 27 27" version="1.1" xmlns="http://www.w3.org/2000/svg" xmlns:xlink="http://www.w3.org/1999/xlink">
    <title>Favicon Round</title>
    <g id="Page-1" stroke="none" stroke-width="1" fill="none" fill-rule="evenodd">
        <g id="Artboard" transform="translate(-344.000000, -479.000000)">
            <g id="Favicon-Round" transform="translate(344.000000, 479.000000)">
                <rect id="Rectangle-Copy" fill="#202020" x="0" y="0" width="27" height="27" rx="13.5"></rect>
                <path d="M13.1428571,18 L13.1428571,13.4285714 C13.1428571,12.1485714 12.7009524,11.0666667 11.8171429,10.1828571 C10.9333333,9.29904762 9.85142857,8.85714286 8.57142857,8.85714286 C7.29142857,8.85714286 6.20952381,9.29904762 5.32571429,10.1828571 C4.44190476,11.0666667 4,12.1485714 4,13.4285714 C4,14.7085714 4.44190476,15.7904762 5.32571429,16.6742857 C6.20952381,17.5580952 7.29142857,18 8.57142857,18 C9.73968254,18 10.7555556,17.6139683 11.6190476,16.8419048 L11.6190476,18 L13.1428571,18 Z M8.57142857,16.4761905 C7.70793651,16.4761905 6.98412698,16.184127 6.4,15.6 C5.81587302,15.015873 5.52380952,14.2920635 5.52380952,13.4285714 C5.52380952,12.5650794 5.81587302,11.8412698 6.4,11.2571429 C6.98412698,10.6730159 7.70793651,10.3809524 8.57142857,10.3809524 C9.43492063,10.3809524 10.1587302,10.6730159 10.7428571,11.2571429 C11.3269841,11.8412698 11.6190476,12.5650794 11.6190476,13.4285714 C11.6190476,14.2920635 11.3269841,15.015873 10.7428571,15.6 C10.1587302,16.184127 9.43492063,16.4761905 8.57142857,16.4761905 Z" id="a-copy" fill="#4E9FD7" fill-rule="nonzero"></path>
                <path d="M15.5238095,21.047619 L15.5238095,16.8419048 C16.3873016,17.6139683 17.4031746,18 18.5714286,18 C19.8514286,18 20.9333333,17.5580952 21.8171429,16.6742857 C22.7009524,15.7904762 23.1428571,14.7085714 23.1428571,13.4285714 C23.1428571,12.1485714 22.7009524,11.0666667 21.8171429,10.1828571 C20.9333333,9.29904762 19.8514286,8.85714286 18.5714286,8.85714286 C17.2914286,8.85714286 16.2095238,9.29904762 15.3257143,10.1828571 C14.4419048,11.0666667 14,12.1485714 14,13.4285714 L14,13.4285714 L14,21.047619 L15.5238095,21.047619 Z M18.5714286,16.4761905 C17.7079365,16.4761905 16.984127,16.184127 16.4,15.6 C15.815873,15.015873 15.5238095,14.2920635 15.5238095,13.4285714 C15.5238095,12.5650794 15.815873,11.8412698 16.4,11.2571429 C16.984127,10.6730159 17.7079365,10.3809524 18.5714286,10.3809524 C19.4349206,10.3809524 20.1587302,10.6730159 20.7428571,11.2571429 C21.3269841,11.8412698 21.6190476,12.5650794 21.6190476,13.4285714 C21.6190476,14.2920635 21.3269841,15.015873 20.7428571,15.6 C20.1587302,16.184127 19.4349206,16.4761905 18.5714286,16.4761905 Z" id="p-copy" fill="#BEDC7F" fill-rule="nonzero"></path>
            </g>
        </g>
    </g>
</svg>