<?xml version="1.0" encoding="UTF-8"?>
<svg width="119px" height="25px" viewBox="0 0 119 25" version="1.1" xmlns="http://www.w3.org/2000/svg" xmlns:xlink="http://www.w3.org/1999/xlink">
    <title>White</title>
    <g id="Page-1" stroke="none" stroke-width="1" fill="none" fill-rule="evenodd">
        <g id="Artboard" transform="translate(-302.000000, -371.000000)" fill-rule="nonzero">
            <g id="White" transform="translate(302.000000, 371.000000)">
                <path d="M9.14285714,12.1904762 L9.14285714,7.61904762 C9.14285714,6.33904762 8.70095238,5.25714286 7.81714286,4.37333333 C6.93333333,3.48952381 5.85142857,3.04761905 4.57142857,3.04761905 C3.29142857,3.04761905 2.20952381,3.48952381 1.32571429,4.37333333 C0.441904762,5.25714286 0,6.33904762 0,7.61904762 C0,8.89904762 0.441904762,9.98095238 1.32571429,10.8647619 C2.20952381,11.7485714 3.29142857,12.1904762 4.57142857,12.1904762 C5.73968254,12.1904762 6.75555556,11.8044444 7.61904762,11.032381 L7.61904762,11.032381 L7.61904762,12.1904762 L9.14285714,12.1904762 Z M4.57142857,10.6666667 C3.70793651,10.6666667 2.98412698,10.3746032 2.4,9.79047619 C1.81587302,9.20634921 1.52380952,8.48253968 1.52380952,7.61904762 C1.52380952,6.75555556 1.81587302,6.03174603 2.4,5.44761905 C2.98412698,4.86349206 3.70793651,4.57142857 4.57142857,4.57142857 C5.43492063,4.57142857 6.15873016,4.86349206 6.74285714,5.44761905 C7.32698413,6.03174603 7.61904762,6.75555556 7.61904762,7.61904762 C7.61904762,8.48253968 7.32698413,9.20634921 6.74285714,9.79047619 C6.15873016,10.3746032 5.43492063,10.6666667 4.57142857,10.6666667 Z M11.4285714,12.1904762 L11.4285714,-5.68434189e-14 L9.9047619,-5.68434189e-14 L9.9047619,12.1904762 L11.4285714,12.1904762 Z M16.7619048,12.1904762 C17.8387302,12.2209524 18.775873,11.9720635 19.5733333,11.4438095 C20.3707937,10.9155556 20.9574603,10.1485714 21.3333333,9.14285714 L21.3333333,9.14285714 L19.8095238,9.14285714 C19.088254,10.2298413 18.072381,10.7377778 16.7619048,10.6666667 C15.2279365,10.5853968 14.2120635,9.82349206 13.7142857,8.38095238 L13.7142857,8.38095238 L21.3333333,8.38095238 C21.3942857,7.74095238 21.3942857,7.23301587 21.3333333,6.85714286 C21.1504762,5.70920635 20.6349206,4.7847619 19.7866667,4.08380952 C18.9384127,3.38285714 17.9301587,3.03746032 16.7619048,3.04761905 C15.4819048,3.05777778 14.4,3.50222222 13.5161905,4.38095238 C12.632381,5.25968254 12.1904762,6.33904762 12.1904762,7.61904762 C12.1904762,8.88888889 12.632381,9.95809524 13.5161905,10.8266667 C14.4,11.6952381 15.4819048,12.1498413 16.7619048,12.1904762 Z M19.8095238,6.85714286 L13.7142857,6.85714286 C13.9174603,6.14603175 14.2907937,5.58730159 14.8342857,5.18095238 C15.3777778,4.77460317 16.0203175,4.57142857 16.7619048,4.57142857 C17.5034921,4.57142857 18.1460317,4.77460317 18.6895238,5.18095238 C19.2330159,5.58730159 19.6063492,6.14603175 19.8095238,6.85714286 L19.8095238,6.85714286 Z M31.2380952,12.1904762 L31.2380952,10.6666667 C30.2730159,10.6666667 29.4196825,10.407619 28.6780952,9.88952381 C27.8450794,9.30031746 27.4285714,8.54349206 27.4285714,7.61904762 C27.4285714,6.69460317 27.8450794,5.93777778 28.6780952,5.34857143 C29.4196825,4.83047619 30.2730159,4.57142857 31.2380952,4.57142857 L31.2380952,4.57142857 L31.2380952,3.04761905 C30.3339683,3.04761905 29.4806349,3.23555556 28.6780952,3.61142857 C27.8450794,3.99746032 27.1746032,4.54603175 26.6666667,5.25714286 C26.1587302,4.54603175 25.488254,3.99238095 24.6552381,3.59619048 C23.8628571,3.23047619 23.0095238,3.04761905 22.0952381,3.04761905 L22.0952381,3.04761905 L22.0952381,4.57142857 C23.0603175,4.57142857 23.9136508,4.83047619 24.6552381,5.34857143 C25.488254,5.93777778 25.9047619,6.69460317 25.9047619,7.61904762 C25.9047619,8.54349206 25.488254,9.30031746 24.6552381,9.88952381 C23.9136508,10.407619 23.0603175,10.6666667 22.0952381,10.6666667 L22.0952381,10.6666667 L22.0952381,12.1904762 C23.0095238,12.1904762 23.8628571,12.007619 24.6552381,11.6419048 C25.488254,11.2457143 26.1587302,10.6920635 26.6666667,9.98095238 C27.1746032,10.6920635 27.8450794,11.2406349 28.6780952,11.6266667 C29.4806349,12.0025397 30.3339683,12.1904762 31.2380952,12.1904762 L31.2380952,12.1904762 Z M41.1428571,12.1904762 L41.1428571,7.61904762 C41.1428571,6.33904762 40.7009524,5.25714286 39.8171429,4.37333333 C38.9333333,3.48952381 37.8514286,3.04761905 36.5714286,3.04761905 C35.2914286,3.04761905 34.2095238,3.48952381 33.3257143,4.37333333 C32.4419048,5.25714286 32,6.33904762 32,7.61904762 C32,8.89904762 32.4419048,9.98095238 33.3257143,10.8647619 C34.2095238,11.7485714 35.2914286,12.1904762 36.5714286,12.1904762 C37.7396825,12.1904762 38.7555556,11.8044444 39.6190476,11.032381 L39.6190476,11.032381 L39.6190476,12.1904762 L41.1428571,12.1904762 Z M36.5714286,10.6666667 C35.7079365,10.6666667 34.984127,10.3746032 34.4,9.79047619 C33.815873,9.20634921 33.5238095,8.48253968 33.5238095,7.61904762 C33.5238095,6.75555556 33.815873,6.03174603 34.4,5.44761905 C34.984127,4.86349206 35.7079365,4.57142857 36.5714286,4.57142857 C37.4349206,4.57142857 38.1587302,4.86349206 38.7428571,5.44761905 C39.3269841,6.03174603 39.6190476,6.75555556 39.6190476,7.61904762 C39.6190476,8.48253968 39.3269841,9.20634921 38.7428571,9.79047619 C38.1587302,10.3746032 37.4349206,10.6666667 36.5714286,10.6666667 Z M43.4285714,12.1904762 L43.4285714,7.61904762 C43.4285714,6.75555556 43.7206349,6.03174603 44.3047619,5.44761905 C44.8888889,4.86349206 45.6126984,4.57142857 46.4761905,4.57142857 C47.3396825,4.57142857 48.0634921,4.86349206 48.647619,5.44761905 C49.231746,6.03174603 49.5238095,6.75555556 49.5238095,7.61904762 L49.5238095,7.61904762 L49.5238095,12.1904762 L51.047619,12.1904762 L51.047619,7.61904762 C51.047619,6.33904762 50.6057143,5.25714286 49.7219048,4.37333333 C48.8380952,3.48952381 47.7561905,3.04761905 46.4761905,3.04761905 C45.1961905,3.04761905 44.1142857,3.48952381 43.2304762,4.37333333 C42.3466667,5.25714286 41.9047619,6.33904762 41.9047619,7.61904762 L41.9047619,7.61904762 L41.9047619,12.1904762 L43.4285714,12.1904762 Z M56.3809524,12.1904762 C57.6609524,12.1904762 58.7428571,11.7485714 59.6266667,10.8647619 C60.5104762,9.98095238 60.952381,8.89904762 60.952381,7.61904762 L60.952381,7.61904762 L60.952381,-5.68434189e-14 L59.4285714,-5.68434189e-14 L59.4285714,4.20571429 C58.5650794,3.43365079 57.5492063,3.04761905 56.3809524,3.04761905 C55.1009524,3.04761905 54.0190476,3.48952381 53.1352381,4.37333333 C52.2514286,5.25714286 51.8095238,6.33904762 51.8095238,7.61904762 C51.8095238,8.89904762 52.2514286,9.98095238 53.1352381,10.8647619 C54.0190476,11.7485714 55.1009524,12.1904762 56.3809524,12.1904762 Z M56.3809524,10.6666667 C55.5174603,10.6666667 54.7936508,10.3746032 54.2095238,9.79047619 C53.6253968,9.20634921 53.3333333,8.48253968 53.3333333,7.61904762 C53.3333333,6.75555556 53.6253968,6.03174603 54.2095238,5.44761905 C54.7936508,4.86349206 55.5174603,4.57142857 56.3809524,4.57142857 C57.2444444,4.57142857 57.968254,4.86349206 58.552381,5.44761905 C59.1365079,6.03174603 59.4285714,6.75555556 59.4285714,7.61904762 C59.4285714,8.48253968 59.1365079,9.20634921 58.552381,9.79047619 C57.968254,10.3746032 57.2444444,10.6666667 56.3809524,10.6666667 Z M63.2380952,12.1904762 L63.2380952,7.61904762 C63.2380952,6.75555556 63.5301587,6.03174603 64.1142857,5.44761905 C64.6984127,4.86349206 65.4222222,4.57142857 66.2857143,4.57142857 C67.1492063,4.57142857 67.8730159,4.86349206 68.4571429,5.44761905 C69.0412698,6.03174603 69.3333333,6.75555556 69.3333333,7.61904762 L69.3333333,7.61904762 L70.8571429,7.61904762 C70.8571429,6.33904762 70.4152381,5.25714286 69.5314286,4.37333333 C68.647619,3.48952381 67.5657143,3.04761905 66.2857143,3.04761905 C65.0057143,3.04761905 63.9238095,3.48952381 63.04,4.37333333 C62.1561905,5.25714286 61.7142857,6.33904762 61.7142857,7.61904762 L61.7142857,7.61904762 L61.7142857,12.1904762 L63.2380952,12.1904762 Z" id="alexandr" fill="#2E7AB2"></path>
                <path d="M73.5238095,15.2380952 L73.5238095,11.032381 C74.3873016,11.8044444 75.4031746,12.1904762 76.5714286,12.1904762 C77.8514286,12.1904762 78.9333333,11.7485714 79.8171429,10.8647619 C80.7009524,9.98095238 81.1428571,8.89904762 81.1428571,7.61904762 C81.1428571,6.33904762 80.7009524,5.25714286 79.8171429,4.37333333 C78.9333333,3.48952381 77.8514286,3.04761905 76.5714286,3.04761905 C75.2914286,3.04761905 74.2095238,3.48952381 73.3257143,4.37333333 C72.4419048,5.25714286 72,6.33904762 72,7.61904762 L72,7.61904762 L72,15.2380952 L73.5238095,15.2380952 Z M76.5714286,10.6666667 C75.7079365,10.6666667 74.984127,10.3746032 74.4,9.79047619 C73.815873,9.20634921 73.5238095,8.48253968 73.5238095,7.61904762 C73.5238095,6.75555556 73.815873,6.03174603 74.4,5.44761905 C74.984127,4.86349206 75.7079365,4.57142857 76.5714286,4.57142857 C77.4349206,4.57142857 78.1587302,4.86349206 78.7428571,5.44761905 C79.3269841,6.03174603 79.6190476,6.75555556 79.6190476,7.61904762 C79.6190476,8.48253968 79.3269841,9.20634921 78.7428571,9.79047619 C78.1587302,10.3746032 77.4349206,10.6666667 76.5714286,10.6666667 Z M91.047619,12.1904762 L91.047619,7.61904762 C91.047619,6.33904762 90.6057143,5.25714286 89.7219048,4.37333333 C88.8380952,3.48952381 87.7561905,3.04761905 86.4761905,3.04761905 C85.1961905,3.04761905 84.1142857,3.48952381 83.2304762,4.37333333 C82.3466667,5.25714286 81.9047619,6.33904762 81.9047619,7.61904762 C81.9047619,8.89904762 82.3466667,9.98095238 83.2304762,10.8647619 C84.1142857,11.7485714 85.1961905,12.1904762 86.4761905,12.1904762 C87.6444444,12.1904762 88.6603175,11.8044444 89.5238095,11.032381 L89.5238095,11.032381 L89.5238095,12.1904762 L91.047619,12.1904762 Z M86.4761905,10.6666667 C85.6126984,10.6666667 84.8888889,10.3746032 84.3047619,9.79047619 C83.7206349,9.20634921 83.4285714,8.48253968 83.4285714,7.61904762 C83.4285714,6.75555556 83.7206349,6.03174603 84.3047619,5.44761905 C84.8888889,4.86349206 85.6126984,4.57142857 86.4761905,4.57142857 C87.3396825,4.57142857 88.0634921,4.86349206 88.647619,5.44761905 C89.231746,6.03174603 89.5238095,6.75555556 89.5238095,7.61904762 C89.5238095,8.48253968 89.231746,9.20634921 88.647619,9.79047619 C88.0634921,10.3746032 87.3396825,10.6666667 86.4761905,10.6666667 Z M98.2857143,12.1904762 C98.9765079,12.1904762 99.5352381,11.9111111 99.9619048,11.352381 C100.368254,10.8342857 100.571429,10.2247619 100.571429,9.52380952 C100.571429,8.76190476 100.383492,8.13714286 100.007619,7.64952381 C99.6012698,7.12126984 99.0273016,6.85714286 98.2857143,6.85714286 L98.2857143,6.85714286 L94.0952381,6.85714286 C93.9022222,6.85714286 93.7244444,6.70984127 93.5619048,6.4152381 C93.4095238,6.16126984 93.3333333,5.92761905 93.3333333,5.71428571 C93.3333333,5.49079365 93.4095238,5.24444444 93.5619048,4.9752381 C93.7142857,4.70603175 93.8920635,4.57142857 94.0952381,4.57142857 L94.0952381,4.57142857 L98.2857143,4.57142857 C98.4990476,4.57142857 98.6793651,4.64507937 98.8266667,4.79238095 C98.9739683,4.93968254 99.047619,5.12 99.047619,5.33333333 L99.047619,5.33333333 L99.047619,5.71428571 L100.571429,5.71428571 L100.571429,5.33333333 C100.571429,4.70349206 100.347937,4.16507937 99.9009524,3.71809524 C99.4539683,3.27111111 98.9155556,3.04761905 98.2857143,3.04761905 L98.2857143,3.04761905 L94.0952381,3.04761905 C93.4044444,3.04761905 92.8457143,3.32698413 92.4190476,3.88571429 C92.0126984,4.40380952 91.8095238,5.01333333 91.8095238,5.71428571 C91.8095238,6.47619048 91.9974603,7.10095238 92.3733333,7.58857143 C92.7796825,8.1168254 93.3536508,8.38095238 94.0952381,8.38095238 L94.0952381,8.38095238 L98.2857143,8.38095238 C98.4685714,8.38095238 98.6412698,8.52063492 98.8038095,8.8 C98.9663492,9.07936508 99.047619,9.32063492 99.047619,9.52380952 C99.047619,9.72698413 98.9714286,9.96063492 98.8190476,10.2247619 C98.6463492,10.5193651 98.4685714,10.6666667 98.2857143,10.6666667 L98.2857143,10.6666667 L94.0952381,10.6666667 C93.8819048,10.6666667 93.7015873,10.5930159 93.5542857,10.4457143 C93.4069841,10.2984127 93.3333333,10.1180952 93.3333333,9.9047619 L93.3333333,9.9047619 L93.3333333,9.52380952 L91.8095238,9.52380952 L91.8095238,9.9047619 C91.8095238,10.5346032 92.0330159,11.0730159 92.48,11.52 C92.9269841,11.9669841 93.4653968,12.1904762 94.0952381,12.1904762 L94.0952381,12.1904762 L98.2857143,12.1904762 Z M102.857143,12.1904762 L102.857143,8.38095238 L104.380952,8.38095238 C105.244444,8.38095238 105.968254,8.67301587 106.552381,9.25714286 C107.136508,9.84126984 107.428571,10.5650794 107.428571,11.4285714 L107.428571,11.4285714 L107.428571,12.1904762 L108.952381,12.1904762 L108.952381,11.4285714 C108.952381,9.79301587 108.271746,8.5231746 106.910476,7.61904762 C108.271746,6.71492063 108.952381,5.44507937 108.952381,3.80952381 L108.952381,3.80952381 L108.952381,3.04761905 L107.428571,3.04761905 L107.428571,3.80952381 C107.428571,4.67301587 107.136508,5.3968254 106.552381,5.98095238 C105.968254,6.56507937 105.244444,6.85714286 104.380952,6.85714286 L104.380952,6.85714286 L102.857143,6.85714286 L102.857143,-2.84217094e-14 L101.333333,-2.84217094e-14 L101.333333,12.1904762 L102.857143,12.1904762 Z M114.285714,12.1904762 C115.565714,12.1904762 116.647619,11.7485714 117.531429,10.8647619 C118.415238,9.98095238 118.857143,8.89904762 118.857143,7.61904762 C118.857143,6.33904762 118.415238,5.25714286 117.531429,4.37333333 C116.647619,3.48952381 115.565714,3.04761905 114.285714,3.04761905 C113.005714,3.04761905 111.92381,3.48952381 111.04,4.37333333 C110.15619,5.25714286 109.714286,6.33904762 109.714286,7.61904762 C109.714286,8.89904762 110.15619,9.98095238 111.04,10.8647619 C111.92381,11.7485714 113.005714,12.1904762 114.285714,12.1904762 Z M114.285714,10.6666667 C113.422222,10.6666667 112.698413,10.3746032 112.114286,9.79047619 C111.530159,9.20634921 111.238095,8.48253968 111.238095,7.61904762 C111.238095,6.75555556 111.530159,6.03174603 112.114286,5.44761905 C112.698413,4.86349206 113.422222,4.57142857 114.285714,4.57142857 C115.149206,4.57142857 115.873016,4.86349206 116.457143,5.44761905 C117.04127,6.03174603 117.333333,6.75555556 117.333333,7.61904762 C117.333333,8.48253968 117.04127,9.20634921 116.457143,9.79047619 C115.873016,10.3746032 115.149206,10.6666667 114.285714,10.6666667 Z" id="pasko" fill="#608B0C"></path>
                <path d="M0.9515,24.1904762 L0.9515,22.3919762 L2.7555,22.3919762 L2.7555,21.9519762 L0.9515,21.9519762 L0.9515,20.7034762 L3.0085,20.7034762 L3.0085,20.2634762 L0.429,20.2634762 L0.429,24.1904762 L0.9515,24.1904762 Z M6.413,24.2784762 C6.908,24.2784762 7.28933333,24.1528929 7.557,23.9017262 C7.82466667,23.6505595 7.9585,23.2738095 7.9585,22.7714762 L7.9585,20.2634762 L7.436,20.2634762 L7.436,22.7714762 C7.436,23.1234762 7.34891667,23.3902262 7.17475,23.5717262 C7.00058333,23.7532262 6.74666667,23.8439762 6.413,23.8439762 C6.061,23.8439762 5.7915,23.7532262 5.6045,23.5717262 C5.4175,23.3902262 5.324,23.1234762 5.324,22.7714762 L5.324,20.2634762 L4.8015,20.2634762 L4.8015,22.7714762 C4.8015,23.2958095 4.94358333,23.6780595 5.22775,23.9182262 C5.51191667,24.1583929 5.907,24.2784762 6.413,24.2784762 Z M12.6335,24.1904762 L12.6335,23.7504762 L10.5545,23.7504762 L10.5545,20.2634762 L10.032,20.2634762 L10.032,24.1904762 L12.6335,24.1904762 Z M16.929,24.1904762 L16.929,23.7504762 L14.85,23.7504762 L14.85,20.2634762 L14.3275,20.2634762 L14.3275,24.1904762 L16.929,24.1904762 Z M22.7865,24.2784762 C22.9661667,24.2784762 23.14675,24.2573929 23.32825,24.2152262 C23.50975,24.1730595 23.6738333,24.1052262 23.8205,24.0117262 C23.9671667,23.9182262 24.08725,23.7972262 24.18075,23.6487262 C24.27425,23.5002262 24.321,23.3214762 24.321,23.1124762 C24.321,22.9181429 24.28525,22.7568095 24.21375,22.6284762 C24.14225,22.5001429 24.0469167,22.3938095 23.92775,22.3094762 C23.8085833,22.2251429 23.6738333,22.1582262 23.5235,22.1087262 C23.3731667,22.0592262 23.2200833,22.0161429 23.06425,21.9794762 C22.9084167,21.9428095 22.7553333,21.9088929 22.605,21.8777262 C22.4546667,21.8465595 22.3199167,21.8071429 22.20075,21.7594762 C22.0815833,21.7118095 21.98625,21.6503929 21.91475,21.5752262 C21.84325,21.5000595 21.8075,21.4019762 21.8075,21.2809762 C21.8075,21.1526429 21.83225,21.0453929 21.88175,20.9592262 C21.93125,20.8730595 21.99725,20.8043095 22.07975,20.7529762 C22.16225,20.7016429 22.2566667,20.6649762 22.363,20.6429762 C22.4693333,20.6209762 22.5775,20.6099762 22.6875,20.6099762 C22.9588333,20.6099762 23.1815833,20.6732262 23.35575,20.7997262 C23.5299167,20.9262262 23.6316667,21.1306429 23.661,21.4129762 L24.156,21.4129762 C24.1486667,21.1966429 24.1074167,21.0105595 24.03225,20.8547262 C23.9570833,20.6988929 23.8544167,20.5696429 23.72425,20.4669762 C23.5940833,20.3643095 23.4428333,20.2891429 23.2705,20.2414762 C23.0981667,20.1938095 22.9111667,20.1699762 22.7095,20.1699762 C22.5298333,20.1699762 22.35475,20.1928929 22.18425,20.2387262 C22.01375,20.2845595 21.8615833,20.3542262 21.72775,20.4477262 C21.5939167,20.5412262 21.4866667,20.6603929 21.406,20.8052262 C21.3253333,20.9500595 21.285,21.1214762 21.285,21.3194762 C21.285,21.4991429 21.32075,21.6485595 21.39225,21.7677262 C21.46375,21.8868929 21.5590833,21.9840595 21.67825,22.0592262 C21.7974167,22.1343929 21.9321667,22.1948929 22.0825,22.2407262 C22.2328333,22.2865595 22.3859167,22.3268929 22.54175,22.3617262 C22.6975833,22.3965595 22.8506667,22.4304762 23.001,22.4634762 C23.1513333,22.4964762 23.2860833,22.5395595 23.40525,22.5927262 C23.5244167,22.6458929 23.61975,22.7146429 23.69125,22.7989762 C23.76275,22.8833095 23.7985,22.9933095 23.7985,23.1289762 C23.7985,23.2719762 23.7691667,23.3893095 23.7105,23.4809762 C23.6518333,23.5726429 23.5748333,23.6450595 23.4795,23.6982262 C23.3841667,23.7513929 23.2769167,23.7889762 23.15775,23.8109762 C23.0385833,23.8329762 22.9203333,23.8439762 22.803,23.8439762 C22.6563333,23.8439762 22.5133333,23.8256429 22.374,23.7889762 C22.2346667,23.7523095 22.11275,23.6954762 22.00825,23.6184762 C21.90375,23.5414762 21.8194167,23.4433929 21.75525,23.3242262 C21.6910833,23.2050595 21.659,23.0629762 21.659,22.8979762 L21.164,22.8979762 C21.164,23.1363095 21.2070833,23.3425595 21.29325,23.5167262 C21.3794167,23.6908929 21.49675,23.8338929 21.64525,23.9457262 C21.79375,24.0575595 21.9660833,24.1409762 22.16225,24.1959762 C22.3584167,24.2509762 22.5665,24.2784762 22.7865,24.2784762 Z M27.6045,24.1904762 L27.6045,20.7034762 L28.9135,20.7034762 L28.9135,20.2634762 L25.773,20.2634762 L25.773,20.7034762 L27.082,20.7034762 L27.082,24.1904762 L27.6045,24.1904762 Z M30.151,24.1904762 L30.591,23.0079762 L32.252,23.0079762 L32.681,24.1904762 L33.2585,24.1904762 L31.724,20.2634762 L31.1465,20.2634762 L29.6175,24.1904762 L30.151,24.1904762 Z M32.087,22.5679762 L30.756,22.5679762 L31.4215,20.7364762 L31.4325,20.7364762 L32.087,22.5679762 Z M36.5035,24.2784762 C37.0058333,24.2784762 37.4018333,24.1409762 37.6915,23.8659762 C37.9811667,23.5909762 38.1516667,23.2059762 38.203,22.7109762 L37.6805,22.7109762 C37.6695,22.8723095 37.6365,23.0226429 37.5815,23.1619762 C37.5265,23.3013095 37.4504167,23.4213929 37.35325,23.5222262 C37.2560833,23.6230595 37.1405833,23.7018929 37.00675,23.7587262 C36.8729167,23.8155595 36.7198333,23.8439762 36.5475,23.8439762 C36.3128333,23.8439762 36.1111667,23.7999762 35.9425,23.7119762 C35.7738333,23.6239762 35.6354167,23.5057262 35.52725,23.3572262 C35.4190833,23.2087262 35.3393333,23.0345595 35.288,22.8347262 C35.2366667,22.6348929 35.211,22.4231429 35.211,22.1994762 C35.211,21.9941429 35.2366667,21.7961429 35.288,21.6054762 C35.3393333,21.4148095 35.4190833,21.2452262 35.52725,21.0967262 C35.6354167,20.9482262 35.7729167,20.8299762 35.93975,20.7419762 C36.1065833,20.6539762 36.3073333,20.6099762 36.542,20.6099762 C36.817,20.6099762 37.0544167,20.6796429 37.25425,20.8189762 C37.4540833,20.9583095 37.5833333,21.1673095 37.642,21.4459762 L38.1645,21.4459762 C38.1351667,21.2369762 38.0728333,21.0527262 37.9775,20.8932262 C37.8821667,20.7337262 37.763,20.6008095 37.62,20.4944762 C37.477,20.3881429 37.3138333,20.3074762 37.1305,20.2524762 C36.9471667,20.1974762 36.7528333,20.1699762 36.5475,20.1699762 C36.2468333,20.1699762 35.9800833,20.2240595 35.74725,20.3322262 C35.5144167,20.4403929 35.3200833,20.5879762 35.16425,20.7749762 C35.0084167,20.9619762 34.8901667,21.1810595 34.8095,21.4322262 C34.7288333,21.6833929 34.6885,21.9519762 34.6885,22.2379762 C34.6885,22.5239762 34.7260833,22.7916429 34.80125,23.0409762 C34.8764167,23.2903095 34.9891667,23.5066429 35.1395,23.6899762 C35.2898333,23.8733095 35.4786667,24.0172262 35.706,24.1217262 C35.9333333,24.2262262 36.1991667,24.2784762 36.5035,24.2784762 Z M40.612,24.1904762 L40.612,22.8154762 L41.2665,22.2049762 L42.6855,24.1904762 L43.3455,24.1904762 L41.624,21.8474762 L43.2795,20.2634762 L42.603,20.2634762 L40.612,22.2214762 L40.612,20.2634762 L40.0895,20.2634762 L40.0895,24.1904762 L40.612,24.1904762 Z M48.95,24.1904762 L49.8575,20.8904762 L49.8685,20.8904762 L50.765,24.1904762 L51.3095,24.1904762 L52.36,20.2634762 L51.8375,20.2634762 L51.04,23.5304762 L51.029,23.5304762 L50.16,20.2634762 L49.5935,20.2634762 L48.7135,23.5304762 L48.7025,23.5304762 L47.9325,20.2634762 L47.399,20.2634762 L48.4055,24.1904762 L48.95,24.1904762 Z M56.8205,24.1904762 L56.8205,23.7504762 L54.615,23.7504762 L54.615,22.3919762 L56.6555,22.3919762 L56.6555,21.9519762 L54.615,21.9519762 L54.615,20.7034762 L56.804,20.7034762 L56.804,20.2634762 L54.0925,20.2634762 L54.0925,24.1904762 L56.8205,24.1904762 Z M60.588,24.1904762 C60.7823333,24.1904762 60.95375,24.1583929 61.10225,24.0942262 C61.25075,24.0300595 61.3754167,23.9457262 61.47625,23.8412262 C61.5770833,23.7367262 61.6531667,23.6166429 61.7045,23.4809762 C61.7558333,23.3453095 61.7815,23.2059762 61.7815,23.0629762 C61.7815,22.8209762 61.7173333,22.6156429 61.589,22.4469762 C61.4606667,22.2783095 61.2755,22.1683095 61.0335,22.1169762 L61.0335,22.1059762 C61.2205,22.0326429 61.3644167,21.9198929 61.46525,21.7677262 C61.5660833,21.6155595 61.6165,21.4349762 61.6165,21.2259762 C61.6165,21.0279762 61.5715833,20.8611429 61.48175,20.7254762 C61.3919167,20.5898095 61.2828333,20.4834762 61.1545,20.4064762 C61.0958333,20.3698095 61.02525,20.3423095 60.94275,20.3239762 C60.86025,20.3056429 60.7713333,20.2918929 60.676,20.2827262 C60.5806667,20.2735595 60.4844167,20.2680595 60.38725,20.2662262 C60.2900833,20.2643929 60.1993333,20.2634762 60.115,20.2634762 L58.6905,20.2634762 L58.6905,24.1904762 L60.588,24.1904762 Z M60.258,21.9519762 L59.213,21.9519762 L59.213,20.7034762 L60.258,20.7034762 C60.3716667,20.7034762 60.4789167,20.7098929 60.57975,20.7227262 C60.6805833,20.7355595 60.7695,20.7639762 60.8465,20.8079762 C60.9235,20.8519762 60.984,20.9143095 61.028,20.9949762 C61.072,21.0756429 61.094,21.1856429 61.094,21.3249762 C61.094,21.5339762 61.0289167,21.6907262 60.89875,21.7952262 C60.7685833,21.8997262 60.555,21.9519762 60.258,21.9519762 Z M60.522,23.7504762 L59.213,23.7504762 L59.213,22.3919762 L60.4065,22.3919762 C60.5165,22.3919762 60.6228333,22.4020595 60.7255,22.4222262 C60.8281667,22.4423929 60.9189167,22.4772262 60.99775,22.5267262 C61.0765833,22.5762262 61.1398333,22.6431429 61.1875,22.7274762 C61.2351667,22.8118095 61.259,22.9181429 61.259,23.0464762 C61.259,23.2664762 61.1939167,23.4388095 61.06375,23.5634762 C60.9335833,23.6881429 60.753,23.7504762 60.522,23.7504762 Z M67.8095,24.1904762 C68.1358333,24.1904762 68.4181667,24.1446429 68.6565,24.0529762 C68.8948333,23.9613095 69.091,23.8283929 69.245,23.6542262 C69.399,23.4800595 69.5126667,23.2655595 69.586,23.0107262 C69.6593333,22.7558929 69.696,22.4634762 69.696,22.1334762 C69.696,21.5028095 69.5328333,21.0334762 69.2065,20.7254762 C68.8801667,20.4174762 68.4145,20.2634762 67.8095,20.2634762 L66.462,20.2634762 L66.462,24.1904762 L67.8095,24.1904762 Z M67.8535,23.7504762 L66.9845,23.7504762 L66.9845,20.7034762 L67.8645,20.7034762 C68.1065,20.7034762 68.31,20.7373929 68.475,20.8052262 C68.64,20.8730595 68.77475,20.9720595 68.87925,21.1022262 C68.98375,21.2323929 69.0589167,21.3900595 69.10475,21.5752262 C69.1505833,21.7603929 69.1735,21.9703095 69.1735,22.2049762 C69.1735,22.4469762 69.14875,22.6532262 69.09925,22.8237262 C69.04975,22.9942262 68.9865,23.1363095 68.9095,23.2499762 C68.8325,23.3636429 68.7454167,23.4534762 68.64825,23.5194762 C68.5510833,23.5854762 68.453,23.6358929 68.354,23.6707262 C68.255,23.7055595 68.1615,23.7275595 68.0735,23.7367262 C67.9855,23.7458929 67.9121667,23.7504762 67.8535,23.7504762 Z M74.2995,24.1904762 L74.2995,23.7504762 L72.094,23.7504762 L72.094,22.3919762 L74.1345,22.3919762 L74.1345,21.9519762 L72.094,21.9519762 L72.094,20.7034762 L74.283,20.7034762 L74.283,20.2634762 L71.5715,20.2634762 L71.5715,24.1904762 L74.2995,24.1904762 Z M77.715,24.1904762 L79.112,20.2634762 L78.5675,20.2634762 L77.4345,23.6679762 L77.4235,23.6679762 L76.3015,20.2634762 L75.7405,20.2634762 L77.121,24.1904762 L77.715,24.1904762 Z M83.4955,24.1904762 L83.4955,23.7504762 L81.29,23.7504762 L81.29,22.3919762 L83.3305,22.3919762 L83.3305,21.9519762 L81.29,21.9519762 L81.29,20.7034762 L83.479,20.7034762 L83.479,20.2634762 L80.7675,20.2634762 L80.7675,24.1904762 L83.4955,24.1904762 Z M87.967,24.1904762 L87.967,23.7504762 L85.888,23.7504762 L85.888,20.2634762 L85.3655,20.2634762 L85.3655,24.1904762 L87.967,24.1904762 Z M91.322,24.2784762 C91.6336667,24.2784762 91.9068333,24.2225595 92.1415,24.1107262 C92.3761667,23.9988929 92.5723333,23.8476429 92.73,23.6569762 C92.8876667,23.4663095 93.0059167,23.2472262 93.08475,22.9997262 C93.1635833,22.7522262 93.203,22.4946429 93.203,22.2269762 C93.203,21.9593095 93.1635833,21.7017262 93.08475,21.4542262 C93.0059167,21.2067262 92.8876667,20.9876429 92.73,20.7969762 C92.5723333,20.6063095 92.3761667,20.4541429 92.1415,20.3404762 C91.9068333,20.2268095 91.6336667,20.1699762 91.322,20.1699762 C91.0103333,20.1699762 90.7371667,20.2268095 90.5025,20.3404762 C90.2678333,20.4541429 90.0716667,20.6063095 89.914,20.7969762 C89.7563333,20.9876429 89.6380833,21.2067262 89.55925,21.4542262 C89.4804167,21.7017262 89.441,21.9593095 89.441,22.2269762 C89.441,22.4946429 89.4804167,22.7522262 89.55925,22.9997262 C89.6380833,23.2472262 89.7563333,23.4663095 89.914,23.6569762 C90.0716667,23.8476429 90.2678333,23.9988929 90.5025,24.1107262 C90.7371667,24.2225595 91.0103333,24.2784762 91.322,24.2784762 Z M91.322,23.8439762 C91.0836667,23.8439762 90.8783333,23.7972262 90.706,23.7037262 C90.5336667,23.6102262 90.3925,23.4864762 90.2825,23.3324762 C90.1725,23.1784762 90.0918333,23.0052262 90.0405,22.8127262 C89.9891667,22.6202262 89.9635,22.4249762 89.9635,22.2269762 C89.9635,22.0289762 89.9891667,21.8337262 90.0405,21.6412262 C90.0918333,21.4487262 90.1725,21.2754762 90.2825,21.1214762 C90.3925,20.9674762 90.5336667,20.8437262 90.706,20.7502262 C90.8783333,20.6567262 91.0836667,20.6099762 91.322,20.6099762 C91.5603333,20.6099762 91.7656667,20.6567262 91.938,20.7502262 C92.1103333,20.8437262 92.2515,20.9674762 92.3615,21.1214762 C92.4715,21.2754762 92.5521667,21.4487262 92.6035,21.6412262 C92.6548333,21.8337262 92.6805,22.0289762 92.6805,22.2269762 C92.6805,22.4249762 92.6548333,22.6202262 92.6035,22.8127262 C92.5521667,23.0052262 92.4715,23.1784762 92.3615,23.3324762 C92.2515,23.4864762 92.1103333,23.6102262 91.938,23.7037262 C91.7656667,23.7972262 91.5603333,23.8439762 91.322,23.8439762 Z M95.601,24.1904762 L95.601,22.5844762 L96.8,22.5844762 C97.196,22.5881429 97.49575,22.4873095 97.69925,22.2819762 C97.90275,22.0766429 98.0045,21.7906429 98.0045,21.4239762 C98.0045,21.0573095 97.90275,20.7722262 97.69925,20.5687262 C97.49575,20.3652262 97.196,20.2634762 96.8,20.2634762 L95.0785,20.2634762 L95.0785,24.1904762 L95.601,24.1904762 Z M96.624,22.1444762 L95.601,22.1444762 L95.601,20.7034762 L96.624,20.7034762 C96.921,20.7034762 97.13825,20.7648929 97.27575,20.8877262 C97.41325,21.0105595 97.482,21.1893095 97.482,21.4239762 C97.482,21.6586429 97.41325,21.8383095 97.27575,21.9629762 C97.13825,22.0876429 96.921,22.1481429 96.624,22.1444762 Z M100.386,24.1904762 L100.386,20.9234762 L100.397,20.9234762 L101.6235,24.1904762 L102.069,24.1904762 L103.2955,20.9234762 L103.3065,20.9234762 L103.3065,24.1904762 L103.8015,24.1904762 L103.8015,20.2634762 L103.0865,20.2634762 L101.8435,23.5634762 L100.606,20.2634762 L99.891,20.2634762 L99.891,24.1904762 L100.386,24.1904762 Z M108.636,24.1904762 L108.636,23.7504762 L106.4305,23.7504762 L106.4305,22.3919762 L108.471,22.3919762 L108.471,21.9519762 L106.4305,21.9519762 L106.4305,20.7034762 L108.6195,20.7034762 L108.6195,20.2634762 L105.908,20.2634762 L105.908,24.1904762 L108.636,24.1904762 Z M110.9955,24.1904762 L110.9955,21.0389762 L111.0065,21.0389762 L113.058,24.1904762 L113.63,24.1904762 L113.63,20.2634762 L113.135,20.2634762 L113.135,23.4479762 L113.124,23.4479762 L111.056,20.2634762 L110.5005,20.2634762 L110.5005,24.1904762 L110.9955,24.1904762 Z M117.128,24.1904762 L117.128,20.7034762 L118.437,20.7034762 L118.437,20.2634762 L115.2965,20.2634762 L115.2965,20.7034762 L116.6055,20.7034762 L116.6055,24.1904762 L117.128,24.1904762 Z" id="FULLSTACKWEBDEVELOPMENT" fill="#282828"></path>
            </g>
        </g>
    </g>
</svg>